<svg id="Layer_1" data-name="Layer 1" xmlns="http://www.w3.org/2000/svg" viewBox="0 0 122.88 101.9"><defs><style>.cls-1{fill-rule:evenodd;}</style></defs><title>desktop-application-app</title><path class="cls-1" d="M3.34,0h116.2a3.35,3.35,0,0,1,3.34,3.34v77a3.35,3.35,0,0,1-3.34,3.34H3.34A3.35,3.35,0,0,1,0,80.32v-77A3.35,3.35,0,0,1,3.34,0Zm9.28,23.21h8.64A.76.76,0,0,1,22,24V26.9a.76.76,0,0,1-.76.75H12.62a.76.76,0,0,1-.76-.75V24a.76.76,0,0,1,.76-.75Zm0,24.37H42.86a.76.76,0,0,1,.76.75v2.94a.76.76,0,0,1-.76.75H12.62a.76.76,0,0,1-.76-.75V48.33a.76.76,0,0,1,.76-.75Zm0-12.41H31.34a.77.77,0,0,1,.76.76v2.94a.77.77,0,0,1-.76.75H12.62a.76.76,0,0,1-.76-.75V35.93a.76.76,0,0,1,.76-.76Zm0,24.81h43.2a.76.76,0,0,1,.75.76v2.94a.76.76,0,0,1-.75.75H12.62a.76.76,0,0,1-.76-.75V60.74a.76.76,0,0,1,.76-.76ZM46.29,88.27h30.3c.08,5.24,2.24,9.94,8.09,13.63H38.2c4.71-3.41,8.11-7.54,8.09-13.63Zm72.22-76.62V70.84a3,3,0,0,1-3,3H7.33a3,3,0,0,1-2.95-3V11.65H31.54v3.87a2,2,0,0,0,2,2h3.05A15.8,15.8,0,0,0,38,21.39l-2.34,2.35a2,2,0,0,0,0,2.79l2.91,2.92a2,2,0,0,0,2.8,0l2.15-2.16A15.61,15.61,0,0,0,47.31,29v3.32a2,2,0,0,0,2,2h4.13a2,2,0,0,0,2-2v-3a15.29,15.29,0,0,0,3.89-1.46l2.35,2.35a2,2,0,0,0,2.79,0l2.92-2.92a2,2,0,0,0,0-2.79l-2.15-2.15a15.78,15.78,0,0,0,1.72-3.78h3.32a2,2,0,0,0,2-2V12.44a2.06,2.06,0,0,0-.16-.79Zm-13.3,14.26,3.24,3.24a2.19,2.19,0,0,1,0,3.09l-2.61,2.61a17.33,17.33,0,0,1,1.62,4.31h3.37A2.2,2.2,0,0,1,113,41.35v4.58a2.19,2.19,0,0,1-2.19,2.19h-3.68a17.29,17.29,0,0,1-1.91,4.19l2.39,2.39a2.2,2.2,0,0,1,0,3.1L104.39,61a2.2,2.2,0,0,1-3.1,0l-2.6-2.61a17.4,17.4,0,0,1-4.32,1.62v3.38a2.2,2.2,0,0,1-2.19,2.19H87.6a2.2,2.2,0,0,1-2.19-2.19V59.74a17.47,17.47,0,0,1-4.19-1.91l-2.39,2.39a2.2,2.2,0,0,1-3.1,0L72.5,57a2.19,2.19,0,0,1,0-3.09l2.6-2.61A17.7,17.7,0,0,1,73.49,47H70.11a2.2,2.2,0,0,1-2.19-2.19V40.2A2.2,2.2,0,0,1,70.11,38H73.8a16.92,16.92,0,0,1,1.91-4.19l-2.39-2.39a2.18,2.18,0,0,1,0-3.1l3.23-3.24a2.2,2.2,0,0,1,3.1,0l2.61,2.61a17.33,17.33,0,0,1,4.31-1.62V22.7a2.2,2.2,0,0,1,2.19-2.19h4.58a2.2,2.2,0,0,1,2.19,2.19v3.69a17.29,17.29,0,0,1,4.19,1.91l2.39-2.39a2.2,2.2,0,0,1,3.1,0ZM59.64,11.65a8.12,8.12,0,1,1-15.55,0ZM90.47,34.06a9,9,0,1,1-9,9,9,9,0,0,1,9-9ZM113.8,4.92a2,2,0,1,1-2,2,2,2,0,0,1,2-2Zm-13.44,0a2,2,0,1,1-2,2,2,2,0,0,1,2-2Zm6.72,0a2,2,0,1,1-2,2,2,2,0,0,1,2-2Z"/></svg>