<svg xmlns="http://www.w3.org/2000/svg" shape-rendering="geometricPrecision" text-rendering="geometricPrecision" image-rendering="optimizeQuality" fill-rule="evenodd" clip-rule="evenodd" viewBox="0 0 512 306.65"><path fill-rule="nonzero" d="M81.23 35.4h131.08V10.28c0-5.68 4.6-10.28 10.28-10.28h76.81c5.68 0 10.28 4.6 10.28 10.28V35.4h121.11a41.899 41.899 0 0 1 9.9-15.73l.08-.08c7.57-7.54 17.99-12.21 29.46-12.21 11.47 0 21.9 4.68 29.49 12.24l.07.08C507.34 27.28 512 37.69 512 49.16c0 11.5-4.68 21.93-12.24 29.49l-.02.02.02.03c-7.56 7.55-18 12.23-29.53 12.23-11.54 0-21.98-4.68-29.54-12.23l-.74-.81a42.047 42.047 0 0 1-9.16-14.97h-58.16a225.789 225.789 0 0 1 51.47 40.78c30.38 32.31 51.62 74.02 59.38 121.94h15.63c6.82 0 12.34 5.53 12.34 12.35v56.32c0 6.81-5.52 12.34-12.34 12.34h-55.67c-6.82 0-12.35-5.53-12.35-12.34v-56.32c0-6.82 5.53-12.35 12.35-12.35h12.23c-7.4-40.43-25.74-75.65-51.57-103.12-25.34-26.95-57.9-46.46-94.42-56.13v21.65c0 5.67-4.6 10.28-10.28 10.28h-76.81c-5.68 0-10.28-4.61-10.28-10.28V66.45c-37.36 10.05-70.53 30.37-96.07 58.47-24.65 27.09-42.2 61.42-49.61 100.72h11.93c6.81 0 12.34 5.53 12.34 12.35v56.32c0 6.81-5.53 12.34-12.34 12.34H22.89c-6.82 0-12.35-5.53-12.35-12.34v-56.32c0-6.82 5.53-12.35 12.35-12.35h15.89c7.79-46.64 28.13-87.33 57.13-119.22a225.7 225.7 0 0 1 53.95-43.5H81.21a41.899 41.899 0 0 1-9.9 15.73l-.07.07c-7.58 7.55-18 12.21-29.46 12.21-11.48 0-21.91-4.67-29.5-12.24l-.07-.07C4.66 71.04 0 60.62 0 49.16c0-11.48 4.67-21.91 12.24-29.49l.07-.08c7.58-7.54 18-12.21 29.47-12.21 11.48 0 21.93 4.69 29.51 12.26l.02-.02c4.4 4.4 7.82 9.78 9.92 15.78z"/></svg>