<svg xmlns="http://www.w3.org/2000/svg" shape-rendering="geometricPrecision" text-rendering="geometricPrecision" image-rendering="optimizeQuality" fill-rule="evenodd" clip-rule="evenodd" viewBox="0 0 512 502.03"><path fill-rule="nonzero" d="M362 489.7c-16.43 16.44-43.09 16.44-59.53 0-9.15-9.15-13.21-21.49-12.16-33.45l.53-414.16c0-23.16 18.78-41.94 41.93-41.94 23.16 0 41.94 18.78 41.94 41.94l-.41 316.25 65.84-65.84c16.43-16.43 43.09-16.43 59.53 0 16.44 16.44 16.44 43.1 0 59.54L362 489.7zM71.86 206.98c-16.44 16.44-43.1 16.44-59.53 0-16.44-16.44-16.44-43.1 0-59.53L147.45 12.33c16.43-16.44 43.09-16.44 59.53 0 9.13 9.13 13.19 21.41 12.18 33.34l.53 414.27c0 23.16-18.78 41.94-41.94 41.94-23.16 0-41.93-18.78-41.93-41.94l-.41-316.51-63.55 63.55z"/></svg>