<?xml version="1.0" encoding="utf-8"?><svg version="1.1" id="Layer_1" xmlns="http://www.w3.org/2000/svg" xmlns:xlink="http://www.w3.org/1999/xlink" x="0px" y="0px" viewBox="0 0 122.88 121.26" style="enable-background:new 0 0 122.88 121.26" xml:space="preserve"><style type="text/css"><![CDATA[
	.st0{fill-rule:evenodd;clip-rule:evenodd;}
]]></style><g><path class="st0" d="M9.77,66.91l9.12-1.44l30.02-45.3c-1.45-1.58-2.49-3.57-2.94-5.82c-0.63-3.26,0.11-6.46,1.84-9.03 c1.73-2.56,4.42-4.47,7.68-5.11c3.26-0.63,6.46,0.11,9.03,1.84c2.56,1.73,4.47,4.43,5.11,7.68c0.63,3.27-0.11,6.48-1.84,9.04 L67.63,19c-0.11,0.16-0.23,0.31-0.34,0.46l25.46,31.61l9.8-1.92c6.53-1.28,12.92,3.03,14.19,9.56l5.93,30.37 c1.28,6.53-3.03,12.92-9.56,14.19l-92.76,17.77c-6.53,1.28-12.92-3.03-14.19-9.56L0.22,81.11C-1.05,74.59,3.25,68.19,9.77,66.91 L9.77,66.91z M43.11,92.34c0.61,3.03,0.97,5.18,1.08,6.46c0.11,1.29-0.1,2.53-0.64,3.72c-0.54,1.19-1.39,2.19-2.56,3.01 c-1.16,0.81-2.59,1.39-4.29,1.73c-1.61,0.32-3.1,0.35-4.49,0.08c-1.39-0.27-2.58-0.85-3.57-1.75c-0.99-0.9-1.68-1.95-2.09-3.16 c-0.4-1.21-0.91-3.37-1.53-6.47l-1.04-5.15c-0.61-3.02-0.97-5.18-1.07-6.46c-0.11-1.29,0.1-2.53,0.64-3.72 c0.54-1.19,1.39-2.19,2.55-3.01c1.16-0.81,2.59-1.39,4.29-1.73c1.61-0.32,3.11-0.35,4.49-0.08c1.39,0.27,2.58,0.85,3.56,1.75 c0.99,0.9,1.68,1.95,2.09,3.16c0.4,1.21,0.91,3.37,1.53,6.46L43.11,92.34L43.11,92.34z M33.28,84.03c-0.28-1.4-0.54-2.27-0.77-2.64 c-0.23-0.36-0.58-0.49-1.05-0.4c-0.4,0.08-0.67,0.3-0.82,0.66c-0.15,0.35-0.07,1.31,0.25,2.86l2.82,14.05 c0.35,1.75,0.64,2.81,0.86,3.19c0.22,0.38,0.59,0.52,1.09,0.42c0.52-0.1,0.81-0.41,0.86-0.91c0.05-0.5-0.1-1.64-0.46-3.41 L33.28,84.03L33.28,84.03z M42.51,74.1l7.89-1.58c2.13-0.43,3.8-0.59,5.02-0.49c1.21,0.11,2.17,0.42,2.87,0.93 c0.71,0.52,1.25,1.21,1.63,2.06c0.39,0.86,0.76,2.23,1.14,4.11l0.53,2.62c0.38,1.91,0.47,3.36,0.25,4.31 c-0.22,0.96-0.81,1.79-1.77,2.47c-0.96,0.68-2.3,1.2-4.01,1.54l-2.1,0.42l2.44,12.14l-7.84,1.58L42.51,74.1L42.51,74.1z M51.38,77.67l1.54,7.67c0.22-0.03,0.42-0.06,0.58-0.09c0.72-0.14,1.18-0.42,1.38-0.83c0.2-0.4,0.19-1.17-0.03-2.28l-0.5-2.48 c-0.21-1.03-0.5-1.67-0.89-1.91C53.08,77.48,52.39,77.46,51.38,77.67L51.38,77.67z M61.61,70.26l13.06-2.62l1.21,6.01l-5.22,1.05 l1.16,5.75l4.87-0.98l1.15,5.71l-4.87,0.98l1.33,6.62l5.75-1.16l1.21,6.01l-13.59,2.73L61.61,70.26L61.61,70.26z M94.9,63.57 l6.05,30.11l-6.85,1.38l-6.83-12.87l2.75,13.69l-6.55,1.32l-6.05-30.11l6.55-1.32l7.1,12.68l-2.72-13.56L94.9,63.57L94.9,63.57z M28.68,63.56l56.18-10.96L61.45,23.53c-0.44,0.13-0.88,0.25-1.34,0.34c-1.73,0.34-3.45,0.28-5.06-0.09L28.68,63.56L28.68,63.56 L28.68,63.56z M55.29,16.3c0.06,0.03,0.13,0.07,0.2,0.11c0.97,0.51,2.11,0.71,3.27,0.48c1.29-0.25,2.35-0.97,3.05-1.94l0.1-0.16 c0.71-1.05,1.01-2.37,0.75-3.71c-0.26-1.35-1.04-2.45-2.08-3.15c-1.05-0.71-2.38-1.02-3.72-0.75c-1.35,0.26-2.45,1.04-3.15,2.08 c-0.71,1.05-1.02,2.38-0.75,3.72c0.26,1.34,1.04,2.45,2.1,3.15v0.01C55.12,16.2,55.2,16.26,55.29,16.3L55.29,16.3L55.29,16.3z"/></g></svg>