<?xml version="1.0" encoding="utf-8"?><svg version="1.1" id="Layer_1" xmlns="http://www.w3.org/2000/svg" xmlns:xlink="http://www.w3.org/1999/xlink" x="0px" y="0px" width="122.88px" height="122.879px" viewBox="0 0 122.88 122.879" enable-background="new 0 0 122.88 122.879" xml:space="preserve"><g><path d="M118.438,61.495c-0.078,1.147-0.11,2.085-0.11,2.534c0,1.06-0.741,1.945-1.733,2.167l-2.918,0.896 c-0.217,0.066-0.436,0.099-0.651,0.099v0.006h-0.464c-1.034,0-1.904-0.708-2.15-1.666l-2.556-7.787l-0.006-0.019l-0.003,0.001 l-0.464-1.467l-4.329,7.777c-0.187,0.335-0.446,0.603-0.749,0.794l0.003,0.004l-2.256,1.431c-1.035,0.656-2.406,0.35-3.063-0.685 c-0.166-0.262-0.27-0.545-0.316-0.832l-2.194-12.321l-3.321-2.353l-7.793-1.391c0.267,0.423,0.538,0.841,0.806,1.254 c1.388,2.142,2.685,4.143,3.115,6.205c0.693,3.315-0.544,6.087-6.063,8.067c0.159,0.096,0.316,0.201,0.472,0.32 c2.15,1.645,2.668,4.071-2.021,10.196c-1.184,1.547-2.202,2.914-3.057,4.102c-0.672,0.935-1.299,1.835-1.876,2.7l1.055,7.676 c0.142,1.034-0.106,2.04-0.772,3.009c-0.494,0.719-1.224,1.402-2.202,2.043c-0.646,0.424-1.198,0.85-1.65,1.277 c-0.179,0.168-0.341,0.336-0.488,0.502l0.485,2.193c0.232,1.051-0.324,2.092-1.275,2.505l0.001,0.002l-0.813,0.354 c-0.161,0.63-0.393,1.248-0.691,1.854c-0.482,0.974-1.15,1.926-2.001,2.854c-0.906,0.991-1.904,1.741-2.992,2.249 c-1.136,0.531-2.333,0.796-3.594,0.796h-3.908c-1.226,0-2.221-0.994-2.221-2.221c0-1.003-0.122-2.067-0.363-3.195 c-0.25-1.167-0.631-2.417-1.141-3.751c-0.575-1.504-1.014-2.865-1.316-4.083c-0.322-1.298-0.483-2.422-0.483-3.374 c0-0.85,0.073-1.611,0.219-2.284c0.173-0.803,0.452-1.485,0.836-2.048c0.04-0.059,0.085-0.227,0.136-0.506 c0.078-0.429,0.118-1.018,0.118-1.771c0-0.573-0.099-1.176-0.294-1.808c-0.217-0.7-0.552-1.447-1.002-2.236 c-0.562-0.985-0.986-1.78-1.271-2.383c-0.41-0.865-0.615-1.559-0.615-2.074c0-3.625-1.243-4.424-2.969-4.424 c-1.037,0-2.204,0.158-3.417,0.323c-1.511,0.205-3.084,0.418-4.629,0.418c-1.165,0-2.315-0.532-3.437-1.588 c-0.827-0.778-1.692-1.906-2.583-3.375c-0.808-1.331-1.418-2.406-1.832-3.216c-0.57-1.116-0.854-1.971-0.854-2.543 c0-1.463-0.001-1.588-0.002-1.705c-0.059-6.162-0.113-11.989,5.83-16.283c2.464-3.503,4.683-5.775,7.352-7.221 c2.779-1.506,5.871-2.033,10.052-2.033c1.226,0,2.221,0.995,2.221,2.221v3.149l2.664,1.166l0.038-0.181 c0.254-1.197,1.431-1.962,2.628-1.709l0.009,0.002v-0.002c0.824,0.178,1.574,0.389,2.256,0.637c0.73,0.266,1.361,0.569,1.898,0.915 c0.281,0.182,0.786,0.343,1.392,0.449c0.678,0.118,1.405,0.142,2.019,0.02c0.326-0.065,0.57-0.142,0.641-0.226l0.001-0.006 c-0.001,0-0.002,0-0.001-0.002l0.014-0.071c0.056-0.331,0.104-0.666,0.145-1.004l-2.637,0.235 c-0.948,0.082-1.808-0.446-2.191-1.259l-0.004,0.001c-0.87-1.83-2.708-2.769-5.015-3.946c-2.48-1.266-5.4-2.757-8.545-5.751 c-10.613,3.765-14.004,4.283-14.854,1.916c-0.5-1.388,0.218-2.499,1.185-3.995c0.872-1.349,2.113-3.267,2.113-5.069 c0-0.965,0.617-1.787,1.478-2.093l8.934-4.081l-0.002,0c-0.963-0.17-2.156-0.382-3.145-5.189c-0.202-0.987,0.288-1.955,1.137-2.401 l-0.001-0.002c0.697-0.367,1.515-0.868,2.454-1.504c0.952-0.645,2.091-1.473,3.419-2.487l0.084-0.064 c-4.542,0.707-8.909,1.954-13.096,3.743l0.001,0.003c-3.494,1.503-6.751,3.263-9.766,5.285c-3.02,2.027-5.818,4.328-8.392,6.911 l-0.009,0.009l0,0c-2.583,2.574-4.884,5.372-6.91,8.392c-2.023,3.014-3.783,6.271-5.286,9.766 c-0.016,0.036-0.032,0.071-0.049,0.106C7.38,42.76,6.288,46.302,5.553,49.97c-0.741,3.703-1.111,7.527-1.111,11.47 c0,3.943,0.371,7.768,1.112,11.471c0.04,0.199,0.081,0.399,0.124,0.6l10.271,4.911c0.768,0.368,1.228,1.121,1.256,1.917h0.001 c0.11,2.936-0.673,5.107-1.477,7.334c-0.598,1.656-1.209,3.35-1.307,5.344c-0.01,0.211-0.049,0.413-0.113,0.604 c1.991,2.938,4.244,5.665,6.765,8.178l0.009,0.009v-0.001c2.573,2.583,5.372,4.885,8.392,6.911 c3.014,2.022,6.271,3.783,9.766,5.286c0.036,0.015,0.071,0.031,0.106,0.049c3.414,1.449,6.957,2.541,10.625,3.275 c3.703,0.741,7.527,1.111,11.47,1.111c3.942,0,7.767-0.37,11.469-1.111c3.707-0.742,7.285-1.85,10.732-3.321l-0.002-0.003 c3.495-1.503,6.752-3.264,9.767-5.286c3.019-2.026,5.817-4.328,8.392-6.911l0.009-0.008l0,0c2.582-2.573,4.884-5.372,6.909-8.392 c2.023-3.014,3.783-6.271,5.286-9.766c0.016-0.036,0.031-0.071,0.049-0.106c1.45-3.414,2.542-6.956,3.276-10.623 C118.064,69.225,118.435,65.419,118.438,61.495L118.438,61.495z M37.497,4.801C44.986,1.6,52.975,0,61.44,0 c4.23,0,8.344,0.399,12.336,1.198c3.943,0.79,7.776,1.975,11.495,3.555c0.04,0.015,0.081,0.031,0.121,0.048 c3.71,1.596,7.204,3.488,10.477,5.685c3.265,2.19,6.286,4.674,9.06,7.457l0.009,0.009c2.783,2.774,5.267,5.795,7.457,9.06 c2.195,3.272,4.089,6.767,5.685,10.477l-0.004,0.001l0.004,0.007c1.604,3.754,2.805,7.624,3.603,11.606 c0.799,3.992,1.198,8.106,1.198,12.337c0,4.231-0.399,8.345-1.198,12.337c-0.789,3.944-1.976,7.777-3.556,11.496 c-0.015,0.04-0.03,0.079-0.047,0.119c-1.596,3.71-3.489,7.204-5.685,10.477c-2.19,3.265-4.674,6.286-7.457,9.06l-0.009,0.009 c-2.773,2.783-5.795,5.267-9.06,7.457c-3.272,2.196-6.767,4.089-10.477,5.685l-0.001-0.003l-0.008,0.003 c-3.754,1.604-7.624,2.806-11.606,3.603c-3.993,0.799-8.106,1.198-12.337,1.198c-4.231,0-8.345-0.399-12.337-1.198 c-3.943-0.789-7.775-1.974-11.494-3.555c-0.041-0.015-0.081-0.03-0.121-0.048c-3.71-1.596-7.204-3.488-10.478-5.685 c-3.264-2.19-6.286-4.674-9.06-7.457l-0.009-0.009c-2.782-2.773-5.266-5.795-7.456-9.06c-2.196-3.272-4.089-6.767-5.685-10.477 l0.003-0.002l-0.003-0.007c-1.604-3.754-2.806-7.623-3.603-11.606C0.4,69.784,0,65.671,0,61.439c0-4.231,0.4-8.345,1.199-12.337 c0.789-3.943,1.975-7.776,3.556-11.496c0.015-0.04,0.03-0.079,0.047-0.119c1.596-3.71,3.488-7.205,5.685-10.477 c2.19-3.264,4.674-6.286,7.456-9.06l0.009-0.009c2.774-2.783,5.796-5.267,9.06-7.457c3.273-2.196,6.768-4.089,10.478-5.685 l0.001,0.003L37.497,4.801L37.497,4.801z M9.681,83.705c0.483,1.118,1.011,2.225,1.583,3.315c0.1-0.282,0.2-0.563,0.301-0.841 c0.517-1.431,1.023-2.834,1.176-4.389L8.08,79.562c0.466,1.383,0.999,2.763,1.601,4.135l-0.003,0.001L9.681,83.705L9.681,83.705z M86.745,10.755c-2.06-1.036-4.204-1.952-6.432-2.744c-8.247,1.899-10.632,0.76-13.277-0.505c-1.345-0.643-2.78-1.33-5.946-1.33 h-1.894c-0.191,0-0.59,0.162-1.198,0.487c-0.812,0.435-1.831,1.118-3.058,2.054c-1.312,1.001-2.52,1.875-3.627,2.625 c-0.645,0.437-1.235,0.816-1.771,1.14c1.058,0.244,1.866,0.906,2.429,5.855l-0.004,0c0.102,0.923-0.389,1.848-1.28,2.255 l-8.394,3.834c-0.409,2.436-1.735,4.488-2.716,6.005c-0.02,0.032-0.043,0.056-0.067,0.073c1.064-0.636,3.626-2.784,9.72-4.992 c0.828-0.359,1.827-0.186,2.485,0.506c2.991,3.128,5.926,4.625,8.377,5.877c2.569,1.311,4.7,2.399,6.22,4.628l3.585-0.32 c0.129-0.023,0.263-0.036,0.399-0.036c1.226,0,2.221,0.994,2.221,2.22c0,0.691-0.032,1.402-0.095,2.125 c-0.06,0.666-0.149,1.356-0.271,2.065c-0.004,0.026-0.008,0.053-0.013,0.079c-0.105,0.606-0.324,1.147-0.633,1.627 c-0.789,1.227-2.07,1.911-3.512,2.198c-1.17,0.233-2.477,0.202-3.648-0.002c-1.159-0.202-2.252-0.595-3.023-1.091 c-0.162-0.104-0.349-0.204-0.561-0.299l-0.103,0.485h-0.002c-0.031,0.143-0.076,0.286-0.137,0.425 c-0.489,1.121-1.793,1.633-2.915,1.145l-6.331-2.772c-0.868-0.301-1.492-1.127-1.492-2.098V39.97 c-2.333,0.15-4.157,0.576-5.732,1.43c-2.052,1.111-3.859,3.028-5.982,6.081c-0.157,0.253-0.369,0.478-0.63,0.656 c-4.338,2.978-4.293,7.763-4.246,12.829c0.01,1.025,0.02,1.43,0.02,1.74c0,0.104,0.117,0.071,0.352,0.53 c0.371,0.727,0.929,1.708,1.676,2.938c0.67,1.104,1.286,1.919,1.838,2.438c0.263,0.248,0.398,0.373,0.401,0.373 c1.339,0,2.717-0.187,4.04-0.366c1.408-0.19,2.763-0.374,4.006-0.374c4.31,0,7.41,1.599,7.41,8.864 c0,0.134,0.061-0.072,0.182,0.184c0.246,0.52,0.618,1.216,1.115,2.088c0.606,1.063,1.069,2.104,1.384,3.121 c0.334,1.077,0.503,2.115,0.503,3.108c0,0.97-0.07,1.826-0.205,2.568c-0.166,0.904-0.444,1.64-0.831,2.206 c-0.057,0.084-0.11,0.24-0.16,0.469c-0.076,0.353-0.114,0.808-0.114,1.365c0,0.619,0.115,1.391,0.344,2.315 c0.25,1.005,0.636,2.192,1.16,3.563c0.584,1.529,1.03,2.999,1.332,4.41c0.138,0.646,0.247,1.278,0.323,1.894h1.832 c0.63,0,1.204-0.12,1.72-0.361c0.563-0.264,1.099-0.672,1.605-1.226c0.553-0.605,0.983-1.216,1.288-1.832 c0.267-0.537,0.431-1.07,0.489-1.598c0.055-0.799,0.541-1.541,1.325-1.883l0.225-0.099l-0.311-1.404l0,0 c-0.122-0.552-0.033-1.15,0.295-1.665c0.454-0.713,1.021-1.39,1.696-2.027c0.656-0.621,1.411-1.209,2.258-1.764 c0.498-0.326,0.823-0.607,0.987-0.846c0.001-0.001,0.002,0,0.003,0.002l0.013,0.009l-1.139-8.282 c-0.108-0.549-0.011-1.138,0.319-1.643c0.641-0.979,1.457-2.16,2.449-3.54c0.962-1.336,2.006-2.74,3.127-4.205 c2.463-3.219,2.927-3.931,2.854-3.986c-0.152-0.117-0.521-0.269-0.908-0.427c-1.513-0.619-3.179-1.303-3.964-3.537 c-0.043-0.111-0.077-0.228-0.103-0.348c-0.249-1.197,0.52-2.371,1.718-2.619c6.022-1.259,7.51-2.595,7.2-4.076 c-0.262-1.256-1.339-2.917-2.491-4.695c-1.148-1.771-2.361-3.644-3.177-5.69c-0.193-0.402-0.267-0.866-0.185-1.339 c0.211-1.207,1.36-2.015,2.567-1.804l12.731,2.272l-0.001,0.009c0.313,0.055,0.618,0.177,0.895,0.373l4.327,3.065 c0.549,0.317,0.959,0.866,1.076,1.54l1.619,9.089l5.624-10.104c0.254-0.546,0.727-0.988,1.346-1.183 c1.169-0.369,2.416,0.28,2.785,1.449l2.015,6.366l-0.003,0l1.881,5.73c0.07-1.222,0.197-2.811,0.401-4.4 c0.208-1.617,0.499-3.231,0.898-4.469c0.292-0.908,0.672-1.679,1.156-2.253c-0.331-2.111-0.783-4.189-1.358-6.232 c-0.694-2.464-1.568-4.867-2.621-7.205c-1.066-2.356-2.265-4.602-3.598-6.743c-1.347-2.161-2.812-4.196-4.401-6.111 c-1.606-1.926-3.338-3.729-5.19-5.409c-1.839-1.666-3.82-3.224-5.942-4.671C91.198,13.188,89.011,11.895,86.745,10.755 L86.745,10.755z M71.405,89.793l-0.011-0.085l-0.013-0.009C71.392,89.72,71.415,89.86,71.405,89.793L71.405,89.793z M38.844,30.524 c0.085,0.237,0.265,0.216,0.629,0.004L38.844,30.524L38.844,30.524z"/></g></svg>