<svg xmlns="http://www.w3.org/2000/svg" shape-rendering="geometricPrecision" text-rendering="geometricPrecision" image-rendering="optimizeQuality" fill-rule="evenodd" clip-rule="evenodd" viewBox="0 0 412 512.4"><path fill-rule="nonzero" d="M270.07 512.4H132.74V387.36L10.71 242.57c-4.82-5.99-8.15-12.21-9.67-17.95-1.44-5.4-1.41-10.69.27-15.37 1.85-5.18 5.57-9.35 11.2-11.99 3.86-1.8 8.66-2.83 14.36-2.85l353.51-.05c6.38-.23 12.03.77 16.69 2.77 5.64 2.39 9.87 6.33 12.42 11.4 2.46 4.9 3.16 10.67 1.88 16.94-1.21 5.83-4.16 12.16-9.11 18.64L280 387.43V512.4h-9.93zm72.58-399.51h-31.01v60.15h-22.07v-71.12c0-3.01 1.24-5.77 3.24-7.76 1.98-2.01 4.73-3.23 7.76-3.23h42.4c4.62-12.16 16.37-20.81 30.15-20.81 17.8 0 32.23 14.43 32.23 32.24 0 17.79-14.43 32.23-32.23 32.23-14.11 0-26.09-9.07-30.47-21.7zm-226.17 7.7v52.45H94.46v-41.45H69.27c-4.4 12.54-16.36 21.53-30.41 21.53-17.79 0-32.22-14.44-32.22-32.22 0-17.81 14.43-32.24 32.22-32.24 13.82 0 25.6 8.7 30.19 20.92h36.43c3.04 0 5.78 1.24 7.77 3.24 1.99 1.98 3.23 4.75 3.23 7.77zM60.33 0C42.53 0 28.1 14.43 28.1 32.24c0 17.79 14.43 32.21 32.23 32.21 13.17 0 24.5-7.89 29.5-19.21h64.45v127.8h22.02V34.26c0-3.02-1.25-5.78-3.23-7.77-1.99-2-4.75-3.23-7.77-3.23h-74C87.41 9.82 75.03 0 60.33 0zm178.55.54c-17.81 0-32.23 14.43-32.23 32.23 0 13.94 8.84 25.81 21.23 30.31v109.96h21.99V63.07c12.39-4.5 21.24-16.37 21.24-30.3 0-17.8-14.43-32.23-32.23-32.23zm108.13 244.5-55.66 65.22-15.02-12.89 55.65-65.21 15.03 12.88zm-68.24 79.97-19.68 23.07-15.02-12.88 19.67-23.07 15.03 12.88zM152.6 492.54h107.54V383.82l2.42-6.44 124.05-145.41c3.04-4 4.78-7.54 5.39-10.48.37-1.77.28-3.19-.19-4.13-.39-.78-1.27-1.5-2.56-2.05-2.04-.91-4.88-1.31-8.41-1.14l-353.93.05c-2.68-.04-4.7.32-6.04.95-.55.25-.88.52-.95.74-.25.73-.16 1.99.27 3.59.84 3.18 2.9 6.89 5.94 10.68l124.1 147.28 2.37 6.36v108.72z"/></svg>