<?xml version="1.0" encoding="utf-8"?><svg version="1.1" id="Layer_1" xmlns="http://www.w3.org/2000/svg" xmlns:xlink="http://www.w3.org/1999/xlink" x="0px" y="0px" viewBox="0 0 58.46 122.88" style="enable-background:new 0 0 58.46 122.88" xml:space="preserve"><style type="text/css"><![CDATA[
	.st0{fill-rule:evenodd;clip-rule:evenodd;fill:#D8182B;}
	.st1{fill:#262626;}
	.st2{fill-rule:evenodd;clip-rule:evenodd;fill:#262626;}
	.st3{fill-rule:evenodd;clip-rule:evenodd;fill:#FFFFFF;}
]]></style><g><path class="st0" d="M16,113.16c-6.5-5.65-7.18-19.86,4.91-26.24c0.76,5.91,1.9,10.2,3.44,12.79c2.28,3.84,7,4.28,9.58,0.43 c1.86-2.77,3.01-7.52,3.89-13.08c10.36,5.19,12.01,19.06,4.97,26.19c-1.8-2.98-4.57-10.89-5.91-4.77 c-0.94,4.29-3.09,11.65-7.54,14.39c-8.35-5.38-6.82-20.99-10.95-14.57C17.46,109.75,16.7,111.41,16,113.16L16,113.16z"/><path class="st1" d="M13.79,76.57C0.15,50.62,3.84,20.17,27.77,0.51c0.87-0.71,2.16-0.67,2.97,0.07 c24.82,19.69,26.72,50.09,14.65,76.55l12.43,11.8c0.61,0.58,0.79,1.41,0.53,2.14l-3.67,14.75c-0.28,1.12-1.46,1.81-2.64,1.55 c-0.31-0.07-0.6-0.2-0.83-0.37l0,0c-18.39-13.41-21.43-12-39.32-3.75c-2.14,0.99-4.45,2.05-6.02,2.76c-1.1,0.5-2.41,0.06-2.93-0.98 c-0.11-0.22-0.18-0.45-0.21-0.69L0.03,89.76c-0.13-0.73,0.15-1.44,0.68-1.9L13.79,76.57L13.79,76.57L13.79,76.57z"/><path class="st3" d="M21.48,76.49C9.06,55.65,7.16,26.79,28.15,9.54c0.63-0.52,1.57-0.49,2.16,0.05 c20.55,16.31,19.41,46.46,7.06,66.89H21.48L21.48,76.49z"/><path class="st1" d="M29.01,46.4c-1.72,0-3.43,0.62-4.74,1.87c-1.31,1.24-1.96,2.87-1.97,4.5c0,1.63,0.66,3.25,1.97,4.5 c1.31,1.24,3.03,1.86,4.74,1.87c1.72,0,3.43-0.62,4.74-1.87c1.31-1.24,1.96-2.87,1.97-4.5c0-1.63-0.66-3.25-1.97-4.5 C32.44,47.02,30.72,46.41,29.01,46.4L29.01,46.4L29.01,46.4z"/><polygon class="st2" points="12.46,34.27 45.4,34.27 47.33,40.41 10.85,40.41 12.46,34.27"/></g></svg>