<svg xmlns="http://www.w3.org/2000/svg" shape-rendering="geometricPrecision" text-rendering="geometricPrecision" image-rendering="optimizeQuality" fill-rule="evenodd" clip-rule="evenodd" viewBox="0 0 512 334.88"><path fill-rule="nonzero" d="M77.01 26.21h15.26v-11.8C92.27 6.48 98.75 0 106.67 0c7.93 0 14.41 6.54 14.41 14.41v11.8h270.4v-11.8c0-7.93 6.48-14.41 14.4-14.41 7.93 0 14.41 6.53 14.41 14.41v11.8h15.26c3.99 0 7.61 1.64 10.2 4.23l1.1 1.29c1.97 2.47 3.14 5.58 3.14 8.92v112.36c0 3.96-1.64 7.6-4.24 10.2-2.6 2.61-6.24 4.24-10.2 4.24h-15.26v167.43h-28.81V167.45h-270.4v167.43H92.27V167.45H77.01c-3.94 0-7.56-1.63-10.19-4.26a14.274 14.274 0 0 1-4.25-10.18V40.65c0-3.96 1.62-7.55 4.23-10.16l.05-.05c2.62-2.61 6.21-4.23 10.16-4.23zm366.91 179.78a8.639 8.639 0 0 1 4.66-11.29c4.4-1.82 9.46.27 11.28 4.67l51.48 123.55c1.82 4.4-.26 9.46-4.67 11.28-1.08.45-2.2.66-3.31.66h-62.28v-17.28h49.33l-46.49-111.59zm-197.8-14.46h19.77v29.34h-19.77v-29.34zm0 56.61h19.77v44.52h-19.77v-44.52zm122.75 86.73H147.92v-17.29h220.95v17.29zm-300.96.01H8.65C3.87 334.88 0 331 0 326.23c0-1.34.3-2.61.85-3.74l45.66-122.82c1.65-4.45 6.62-6.72 11.07-5.07 4.46 1.66 6.73 6.62 5.08 11.08l-41.6 111.9h46.85v17.3z"/><path fill="#3AAF3C" d="M77.01 37.33h358.54c1.83 0 3.32 1.51 3.32 3.32v112.36c0 1.81-1.51 3.32-3.32 3.32H77.01c-1.81 0-3.32-1.49-3.32-3.32V40.65c0-1.83 1.49-3.32 3.32-3.32z"/><path fill="#fff" fill-rule="nonzero" d="m135.76 122 2.34-12.22c5.12 1.29 9.73 1.93 13.82 1.93s7.39-.17 9.9-.5v-5.74l-7.52-.67c-6.79-.61-11.45-2.24-13.98-4.89-2.54-2.64-3.81-6.55-3.81-11.73 0-7.12 1.55-12.02 4.64-14.69 3.09-2.68 8.34-4.01 15.74-4.01 7.41 0 14.09.69 20.04 2.08l-2.08 11.8c-5.18-.83-9.33-1.25-12.45-1.25-3.11 0-5.76.14-7.93.42v5.65l6.01.59c7.3.72 12.34 2.46 15.12 5.22 2.78 2.75 4.17 6.58 4.17 11.48 0 3.51-.47 6.47-1.41 8.9-.95 2.42-2.08 4.25-3.39 5.5-1.31 1.26-3.16 2.22-5.55 2.89-2.4.67-4.5 1.07-6.31 1.21-1.81.14-4.21.21-7.22.21-7.24 0-13.95-.73-20.13-2.18zm90.58-37.91h-12.11v38.83h-16.71V84.09h-12.11V70.73h40.93v13.36zm17.24 38.83h-17.62l13.53-52.19h25.8l13.53 52.19H261.2l-1.92-8.26H245.5l-1.92 8.26zm6.79-36.15-3.42 14.61h10.8l-3.34-14.61h-4.04zm80.27 36.15h-18.37l-6.85-15.53h-3.59v15.53h-16.7V70.73h26.31c11.97 0 17.95 6.1 17.95 18.29 0 8.35-2.59 13.86-7.76 16.54l9.01 17.36zm-28.81-40.39v13.56h3.84c2.01 0 3.47-.21 4.39-.62.91-.42 1.38-1.38 1.38-2.89v-6.54c0-1.51-.47-2.47-1.38-2.88-.92-.42-2.39-.63-4.39-.63h-3.84zm74.96 1.56h-12.11v38.83h-16.7V84.09h-12.11V70.73h40.92v13.36z"/></svg>